<?xml version="1.0" encoding="utf-8"?>
<!-- Generator: Adobe Illustrator 16.0.0, SVG Export Plug-In . SVG Version: 6.00 Build 0)  -->
<!DOCTYPE svg PUBLIC "-//W3C//DTD SVG 1.1//EN" "http://www.w3.org/Graphics/SVG/1.1/DTD/svg11.dtd">
<svg version="1.1" id="Layer_1" xmlns="http://www.w3.org/2000/svg" xmlns:xlink="http://www.w3.org/1999/xlink" x="0px" y="0px"
	 width="48px" height="48px" viewBox="0 0 48 48" enable-background="new 0 0 48 48" xml:space="preserve">
<g>
	<g>
		<g>
			<path fill="none" stroke="#000000" stroke-width="2" stroke-linecap="round" stroke-linejoin="round" stroke-miterlimit="10" d="
				M25.411,6.213c-5.812-0.175-8.759,2.776-9.937,5.049c-0.714,1.379-0.782,2.892-0.782,4.438c0,1.355-0.214,2.674-0.479,3.983
				c-0.174,0.869-0.798,1.745-0.649,2.63c0.304,0.202,0.615,0.472,0.971,0.601c0.308,0.114,0.904,0.021,1.158,0.207
				c0.563,0.412,0.022,1.099,0.351,1.549c0.17,0.234,0.951,0.323,1.211,0.521c-0.169,0.364-0.979,0.366-0.84,0.917
				c0.058,0.218,0.494,0.272,0.613,0.49c0.124,0.221,0.084,0.544,0.088,0.789c0.022,1.139-0.802,2.406,0.91,2.71
				c1.403,0.251,2.686-0.468,3.596,0.874c0.574,0.846,0.83,2.171,0.768,3.188"/>
			<path fill="none" stroke="#000000" stroke-width="2" stroke-linecap="round" stroke-linejoin="round" stroke-miterlimit="10" d="
				M32.557,21.186c-1.707,2.31-2.184,4.581-2.184,6.841c0,1.656,0.18,3.048,0.145,4.492"/>
			<path fill="none" stroke="#000000" stroke-width="2" stroke-linecap="round" stroke-miterlimit="10" d="M25.411,6.213
				c4.996,0,9.047,4.156,9.047,9.282c0,2.289-0.807,4.382-2.144,6"/>
		</g>
		<g>
			<path d="M27.097,17.211c0.038,0.31,0.017,0.597-0.067,0.864c-0.086,0.269-0.224,0.506-0.416,0.716
				c-0.191,0.21-0.438,0.389-0.734,0.537c-0.298,0.147-0.641,0.257-1.023,0.326l0.037,1.271c0,0.023-0.004,0.047-0.011,0.068
				c-0.007,0.023-0.022,0.042-0.048,0.06c-0.024,0.017-0.062,0.033-0.108,0.047c-0.047,0.014-0.11,0.025-0.187,0.036
				c-0.087,0.012-0.16,0.016-0.212,0.013c-0.054-0.003-0.097-0.009-0.13-0.019c-0.032-0.01-0.054-0.025-0.067-0.051
				c-0.013-0.022-0.017-0.051-0.013-0.083l-0.03-1.265c-0.188,0.001-0.363-0.007-0.525-0.022c-0.164-0.017-0.31-0.037-0.438-0.064
				c-0.129-0.026-0.239-0.057-0.332-0.092c-0.091-0.034-0.162-0.07-0.209-0.104c-0.044-0.037-0.08-0.085-0.102-0.149
				c-0.026-0.063-0.045-0.152-0.06-0.268c-0.011-0.084-0.017-0.155-0.017-0.212c0.002-0.057,0.007-0.104,0.017-0.145
				c0.011-0.037,0.028-0.066,0.05-0.082c0.024-0.017,0.054-0.027,0.088-0.032c0.05-0.007,0.127,0.013,0.226,0.056
				c0.099,0.044,0.231,0.09,0.392,0.138c0.16,0.048,0.356,0.086,0.582,0.114c0.228,0.03,0.494,0.024,0.803-0.016
				c0.546-0.071,0.949-0.233,1.203-0.485c0.255-0.253,0.36-0.564,0.309-0.935c-0.028-0.227-0.104-0.41-0.229-0.549
				c-0.124-0.139-0.277-0.251-0.464-0.34c-0.187-0.087-0.393-0.156-0.621-0.206c-0.228-0.051-0.458-0.102-0.695-0.153
				c-0.237-0.053-0.47-0.115-0.701-0.191c-0.231-0.076-0.442-0.18-0.63-0.313c-0.19-0.131-0.353-0.302-0.485-0.509
				c-0.132-0.208-0.22-0.475-0.263-0.797c-0.032-0.258-0.021-0.506,0.039-0.741c0.06-0.234,0.168-0.447,0.323-0.638
				c0.156-0.191,0.362-0.356,0.617-0.498c0.256-0.142,0.561-0.246,0.917-0.316L23.841,11c0.002-0.024,0.004-0.047,0.012-0.069
				c0.007-0.022,0.022-0.044,0.048-0.062c0.024-0.02,0.06-0.035,0.105-0.047c0.046-0.012,0.11-0.022,0.19-0.034
				c0.085-0.011,0.156-0.016,0.214-0.015c0.056,0,0.099,0.008,0.13,0.021c0.032,0.014,0.053,0.032,0.063,0.053
				c0.011,0.023,0.019,0.05,0.022,0.079l0.022,1.173c0.117-0.003,0.24,0.002,0.368,0.015c0.131,0.012,0.253,0.029,0.368,0.052
				c0.114,0.022,0.218,0.051,0.311,0.083c0.096,0.032,0.161,0.063,0.197,0.09c0.038,0.024,0.064,0.052,0.081,0.077
				c0.019,0.024,0.031,0.054,0.043,0.088c0.014,0.033,0.025,0.074,0.037,0.119s0.022,0.097,0.028,0.154
				c0.011,0.072,0.015,0.138,0.017,0.192s-0.002,0.099-0.01,0.131c-0.007,0.032-0.021,0.057-0.037,0.075
				c-0.016,0.018-0.039,0.028-0.064,0.032c-0.043,0.005-0.114-0.012-0.213-0.049c-0.099-0.039-0.225-0.078-0.371-0.117
				c-0.149-0.039-0.317-0.071-0.509-0.099c-0.19-0.025-0.401-0.024-0.628,0.006c-0.259,0.035-0.476,0.087-0.653,0.161
				c-0.177,0.074-0.315,0.164-0.417,0.27c-0.101,0.104-0.17,0.225-0.207,0.359c-0.036,0.133-0.043,0.275-0.022,0.425
				c0.03,0.231,0.108,0.418,0.233,0.559c0.127,0.141,0.283,0.253,0.468,0.339c0.186,0.084,0.393,0.152,0.623,0.2
				c0.229,0.049,0.464,0.1,0.705,0.151c0.24,0.054,0.477,0.116,0.708,0.187c0.233,0.072,0.445,0.175,0.637,0.306
				c0.191,0.134,0.355,0.303,0.489,0.51C26.964,16.622,27.053,16.888,27.097,17.211z"/>
		</g>
	</g>
	<path fill="none" stroke="#000000" stroke-width="2" stroke-linecap="round" stroke-linejoin="round" stroke-miterlimit="10" d="
		M47,33.817c0,2.101-1.719,3.818-3.818,3.818H4.818c-2.1,0-3.818-1.718-3.818-3.818V6.545c0-2.1,1.718-3.817,3.818-3.817h38.363
		c2.1,0,3.818,1.718,3.818,3.817V33.817z"/>
	
		<line fill="none" stroke="#000000" stroke-width="2" stroke-linecap="round" stroke-linejoin="round" stroke-miterlimit="10" x1="11.545" y1="45.272" x2="36.454" y2="45.272"/>
	
		<line fill="none" stroke="#000000" stroke-width="2" stroke-linecap="round" stroke-linejoin="round" stroke-miterlimit="10" x1="24" y1="38" x2="24" y2="44.729"/>
</g>
</svg>
